<?xml version="1.0" encoding="utf-8"?>
<!-- Generator: Adobe Illustrator 16.0.0, SVG Export Plug-In . SVG Version: 6.00 Build 0)  -->
<!DOCTYPE svg PUBLIC "-//W3C//DTD SVG 1.1//EN" "http://www.w3.org/Graphics/SVG/1.1/DTD/svg11.dtd" [
	<!ENTITY st0 "fill:#47AD8D;">
	<!ENTITY st1 "fill:none;">
]>
<svg version="1.1" id="レイヤー_1" xmlns="http://www.w3.org/2000/svg" xmlns:xlink="http://www.w3.org/1999/xlink" x="0px"
	 y="0px" width="1080px" height="1080px" viewBox="0 0 1080 1080" style="enable-background:new 0 0 1080 1080;"
	 xml:space="preserve">
<circle style="&st0;" cx="901.89" cy="338.46" r="61"/>
<circle style="&st0;" cx="206.56" cy="313.2" r="56.5"/>
<circle style="&st0;" cx="228.93" cy="542.05" r="32.5"/>
<g>
	<g>
		<path style="&st0;" d="M961.37,584.31c-26.79,0-48.5,21.71-48.5,48.5s21.71,48.5,48.5,48.5s48.5-21.71,48.5-48.5
			S988.16,584.31,961.37,584.31z M961.37,657.31c-13.53,0-24.5-10.97-24.5-24.5s10.97-24.5,24.5-24.5c13.53,0,24.5,10.97,24.5,24.5
			S974.9,657.31,961.37,657.31z"/>
	</g>
</g>
<circle style="&st0;" cx="857.19" cy="804.17" r="64.5"/>
<circle style="&st0;" cx="320.93" cy="891.07" r="59.5"/>
<path style="&st0;" d="M455.13,139.61c14.06,0,25.5,11.44,25.5,25.5c0,14.06-11.44,25.5-25.5,25.5s-25.5-11.44-25.5-25.5
	C429.63,151.05,441.07,139.61,455.13,139.61 M455.13,115.61c-27.33,0-49.5,22.16-49.5,49.5c0,27.33,22.17,49.5,49.5,49.5
	s49.5-22.16,49.5-49.5C504.63,137.77,482.46,115.61,455.13,115.61L455.13,115.61z"/>
<path style="&st0;" d="M154.13,594.18c30.88,0,56,25.12,56,56c0,30.88-25.12,56-56,56s-56-25.12-56-56
	C98.13,619.3,123.25,594.18,154.13,594.18 M154.13,570.18c-44.19,0-80,35.81-80,80s35.81,80,80,80s80-35.8,80-80
	S198.32,570.18,154.13,570.18L154.13,570.18z"/>
<path style="&st1;" d="M540,323.27c-119.51,0-216.73,97.23-216.73,216.73c0,119.51,97.23,216.73,216.73,216.73
	c119.51,0,216.73-97.22,216.73-216.73C756.73,420.49,659.51,323.27,540,323.27z"/>
<path style="&st1;" d="M540,323.27c-119.51,0-216.73,97.23-216.73,216.73c0,119.51,97.23,216.73,216.73,216.73
	c119.51,0,216.73-97.22,216.73-216.73C756.73,420.49,659.51,323.27,540,323.27z"/>
<path style="&st0;" d="M891.14,650.81c-1.48-5.76-2.26-11.79-2.26-18c0-6.21,0.79-12.24,2.26-18H781.52
	c7.38-23.92,11.21-49.07,11.21-74.81c0-20.42-2.42-40.47-7.1-59.83l70.28-70.28c-10.19-6.58-18.88-15.27-25.46-25.46l-57.42,57.42
	c-12.53-29.74-30.82-57.06-54.32-80.57c-47.73-47.73-111.2-74.02-178.71-74.02c-22.91,0-45.35,3.04-66.87,8.9v-59.8
	c-5.76,1.46-11.79,2.24-18,2.24s-12.24-0.78-18-2.24v72.64c-27.91,12.44-53.58,30.03-75.83,52.28
	c-13.84,13.84-25.86,29.01-35.98,45.21l-50.58-50.58c-6.46,10.28-15.18,18.99-25.46,25.46l35,35h-49.15c-54.59,0-99,44.41-99,99
	v32.34c5.89-1.02,11.9-1.54,18-1.54s12.11,0.52,18,1.54v-32.34c0-34.74,28.26-63,63-63h51.72l-34.88,38.09
	c11.25,5.04,20.56,13.65,26.48,24.39l11.62-12.69c-1.85,12.41-2.8,25.05-2.8,37.83c0,67.51,26.29,130.97,74.02,178.71
	c18.34,18.34,39,33.5,61.32,45.23l-56.79,56.79c10.22,6.54,18.91,15.24,25.46,25.46l66.93-66.93c25.98,8.86,53.53,13.48,81.79,13.48
	c67.51,0,130.97-26.29,178.71-74.02c4.62-4.62,9.04-9.4,13.25-14.3l51.25,51.25c6.66-10.12,15.34-18.8,25.46-25.46l-55.02-55.02
	c5.01-7.88,9.54-16.02,13.62-24.37H891.14z M540,756.73c-119.51,0-216.73-97.22-216.73-216.73c0-119.51,97.23-216.73,216.73-216.73
	c119.51,0,216.73,97.23,216.73,216.73C756.73,659.51,659.51,756.73,540,756.73z"/>
<g>
	<circle style="&st0;" cx="543.66" cy="394.31" r="33.5"/>
	<path style="&st0;" d="M648.71,517.91l-33.14-10.04c-15.14-4.59-34.92-19.19-42.33-31.24c0,0-13.38-20.7-18.48-27.13
		c-3.98-5.01-11.75-12.76-21.53-13.86c-4.1-0.46-9.52,0.49-12.07,1.33c-2.35,0.78-7.52,3.78-7.52,3.78
		c-13.03,6.33-42.26,33.37-42.26,33.37c-10.99,9.03-19.53,26.57-19.87,40.8l-0.94,39.88c-0.17,7.18,5.51,13.13,12.69,13.3
		c0.1,0,0.21,0,0.31,0c7.04,0,12.82-5.62,12.99-12.69l0.94-39.88c0.16-6.7,5.2-17.06,10.38-21.32l10.28-8.45l-6.43,57.21
		c-0.87,7.7,1.35,15.04,5.65,20.79l-0.74,3.35c-2.49,11.28-7.78,29.38-11.77,40.22l-17.74,38.27
		c-5.68,10.06-16.01,25.84-22.95,35.06l-3.07,4.08c-6.95,9.23-6.7,21.24,0.55,26.7c7.25,5.46,18.87,2.37,25.81-6.85l3.07-4.08
		c6.95-9.23,17.3-24.99,23.02-35.03l23.62-51.02c3.32-9.14,7.57-23.41,10.31-34.43l26.54,25.35c14.47,13.83,31.65,42.07,37.51,61.68
		l12.05,40.36c2.14,7.16,8.7,11.78,15.8,11.78c1.56,0,3.15-0.22,4.73-0.7c8.73-2.61,13.7-11.8,11.09-20.53l-12.05-40.36
		c-7.46-24.98-27.81-58.4-46.33-76.09l-28.05-26.79c0.51-1.68,0.88-3.42,1.08-5.22l5.91-52.64c12.25,15.3,33.69,30.27,52.25,35.89
		l33.14,10.04c1.26,0.38,2.53,0.56,3.78,0.56c5.58,0,10.73-3.62,12.44-9.23C659.46,527.25,655.58,520,648.71,517.91z"/>
</g>
</svg>
